<mxfile host="Electron" agent="Mozilla/5.0 (Windows NT 10.0; Win64; x64) AppleWebKit/537.36 (KHTML, like Gecko) draw.io/24.7.17 Chrome/128.0.6613.36 Electron/32.0.1 Safari/537.36" version="24.7.17">
  <diagram name="PÃ¡gina-1" id="suDs9cZ8lpwEUTx6rQ9a">
    <mxGraphModel dx="1434" dy="844" grid="1" gridSize="10" guides="1" tooltips="1" connect="1" arrows="1" fold="1" page="1" pageScale="1" pageWidth="827" pageHeight="1169" math="0" shadow="0">
      <root>
        <mxCell id="0" />
        <mxCell id="1" parent="0" />
        <mxCell id="hk8a2O4gQxyiNjNptd78-115" value="&lt;h1 style=&quot;margin-top: 0px;&quot;&gt;Diagrama para sistema de medicion. BATER-IA&lt;/h1&gt;" style="text;html=1;whiteSpace=wrap;overflow=hidden;rounded=0;align=center;" parent="1" vertex="1">
          <mxGeometry x="602.25" width="480" height="70" as="geometry" />
        </mxCell>
        <mxCell id="hk8a2O4gQxyiNjNptd78-116" value="V 2.0&amp;nbsp; &amp;nbsp; &amp;nbsp; &amp;nbsp; 19 Oct 2024" style="text;html=1;align=center;verticalAlign=middle;whiteSpace=wrap;rounded=0;" parent="1" vertex="1">
          <mxGeometry x="1167.75" width="130" height="30" as="geometry" />
        </mxCell>
        <mxCell id="hk8a2O4gQxyiNjNptd78-117" value="Angel Habid Navarro Mendez" style="text;html=1;align=center;verticalAlign=middle;whiteSpace=wrap;rounded=0;" parent="1" vertex="1">
          <mxGeometry x="1152.75" y="20" width="160" height="30" as="geometry" />
        </mxCell>
        <mxCell id="hk8a2O4gQxyiNjNptd78-120" style="edgeStyle=orthogonalEdgeStyle;rounded=0;orthogonalLoop=1;jettySize=auto;html=1;exitX=1;exitY=0.88;exitDx=0;exitDy=0;entryX=0.5;entryY=0;entryDx=0;entryDy=0;" parent="1" source="hk8a2O4gQxyiNjNptd78-1" target="hk8a2O4gQxyiNjNptd78-7" edge="1">
          <mxGeometry relative="1" as="geometry" />
        </mxCell>
        <mxCell id="hk8a2O4gQxyiNjNptd78-1" value="&lt;p style=&quot;line-height: 100%;&quot;&gt;&lt;br&gt;&lt;/p&gt;" style="html=1;shape=mxgraph.electrical.electro-mechanical.twoWaySwitch;aspect=fixed;elSwitchState=2;fillColor=#dae8fc;strokeColor=#6c8ebf;" parent="1" vertex="1">
          <mxGeometry x="491.25" y="107" width="75" height="26" as="geometry" />
        </mxCell>
        <mxCell id="hk8a2O4gQxyiNjNptd78-43" style="edgeStyle=orthogonalEdgeStyle;rounded=0;orthogonalLoop=1;jettySize=auto;html=1;exitX=1;exitY=0.12;exitDx=0;exitDy=0;entryX=0.5;entryY=0;entryDx=0;entryDy=0;" parent="1" source="hk8a2O4gQxyiNjNptd78-2" target="hk8a2O4gQxyiNjNptd78-7" edge="1">
          <mxGeometry relative="1" as="geometry" />
        </mxCell>
        <mxCell id="hk8a2O4gQxyiNjNptd78-2" value="" style="html=1;shape=mxgraph.electrical.electro-mechanical.twoWaySwitch;aspect=fixed;elSwitchState=2;direction=west;flipV=1;fillColor=#dae8fc;strokeColor=#6c8ebf;" parent="1" vertex="1">
          <mxGeometry x="681.25" y="107" width="75" height="26" as="geometry" />
        </mxCell>
        <mxCell id="hk8a2O4gQxyiNjNptd78-55" style="edgeStyle=orthogonalEdgeStyle;rounded=0;orthogonalLoop=1;jettySize=auto;html=1;exitX=1;exitY=0.88;exitDx=0;exitDy=0;entryX=0.5;entryY=0;entryDx=0;entryDy=0;" parent="1" source="hk8a2O4gQxyiNjNptd78-3" target="hk8a2O4gQxyiNjNptd78-23" edge="1">
          <mxGeometry relative="1" as="geometry">
            <Array as="points">
              <mxPoint x="611.25" y="365" />
              <mxPoint x="621.25" y="365" />
            </Array>
          </mxGeometry>
        </mxCell>
        <mxCell id="hk8a2O4gQxyiNjNptd78-3" value="" style="html=1;shape=mxgraph.electrical.electro-mechanical.twoWaySwitch;aspect=fixed;elSwitchState=2;direction=south;flipH=1;fillColor=#dae8fc;strokeColor=#6c8ebf;" parent="1" vertex="1">
          <mxGeometry x="608.25" y="265" width="26" height="75" as="geometry" />
        </mxCell>
        <mxCell id="hk8a2O4gQxyiNjNptd78-13" value="" style="group" parent="1" vertex="1" connectable="0">
          <mxGeometry x="601.25" y="150" width="40" height="90" as="geometry" />
        </mxCell>
        <mxCell id="hk8a2O4gQxyiNjNptd78-7" value="" style="rounded=0;whiteSpace=wrap;html=1;container=0;" parent="hk8a2O4gQxyiNjNptd78-13" vertex="1">
          <mxGeometry x="17.14285714285714" width="5.7142857142857135" height="6.923076923076923" as="geometry" />
        </mxCell>
        <mxCell id="hk8a2O4gQxyiNjNptd78-4" value="" style="verticalLabelPosition=bottom;shadow=0;dashed=0;align=center;fillColor=strokeColor;html=1;verticalAlign=top;strokeWidth=1;shape=mxgraph.electrical.miscellaneous.monocell_battery;direction=north;container=0;" parent="hk8a2O4gQxyiNjNptd78-13" vertex="1">
          <mxGeometry x="2.8571428571428568" y="6.923076923076923" width="34.28571428571428" height="83.07692307692308" as="geometry" />
        </mxCell>
        <mxCell id="hk8a2O4gQxyiNjNptd78-5" value="" style="rounded=0;whiteSpace=wrap;html=1;gradientColor=default;fillColor=none;container=0;" parent="hk8a2O4gQxyiNjNptd78-13" vertex="1">
          <mxGeometry y="6.923076923076923" width="40" height="83.07692307692308" as="geometry" />
        </mxCell>
        <mxCell id="hk8a2O4gQxyiNjNptd78-22" value="" style="group" parent="1" vertex="1" connectable="0">
          <mxGeometry x="601.25" y="400" width="40" height="90" as="geometry" />
        </mxCell>
        <mxCell id="hk8a2O4gQxyiNjNptd78-23" value="" style="rounded=0;whiteSpace=wrap;html=1;container=0;" parent="hk8a2O4gQxyiNjNptd78-22" vertex="1">
          <mxGeometry x="17.14285714285714" width="5.7142857142857135" height="6.923076923076923" as="geometry" />
        </mxCell>
        <mxCell id="hk8a2O4gQxyiNjNptd78-24" value="" style="verticalLabelPosition=bottom;shadow=0;dashed=0;align=center;fillColor=strokeColor;html=1;verticalAlign=top;strokeWidth=1;shape=mxgraph.electrical.miscellaneous.monocell_battery;direction=north;container=0;" parent="hk8a2O4gQxyiNjNptd78-22" vertex="1">
          <mxGeometry x="2.8571428571428568" y="6.923076923076923" width="34.28571428571428" height="83.07692307692308" as="geometry" />
        </mxCell>
        <mxCell id="hk8a2O4gQxyiNjNptd78-25" value="" style="rounded=0;whiteSpace=wrap;html=1;gradientColor=default;fillColor=none;container=0;" parent="hk8a2O4gQxyiNjNptd78-22" vertex="1">
          <mxGeometry y="6.923076923076923" width="40" height="83.07692307692308" as="geometry" />
        </mxCell>
        <mxCell id="hk8a2O4gQxyiNjNptd78-70" style="edgeStyle=orthogonalEdgeStyle;rounded=0;orthogonalLoop=1;jettySize=auto;html=1;exitX=1;exitY=0.88;exitDx=0;exitDy=0;entryX=0.5;entryY=0;entryDx=0;entryDy=0;" parent="1" source="hk8a2O4gQxyiNjNptd78-35" target="hk8a2O4gQxyiNjNptd78-37" edge="1">
          <mxGeometry relative="1" as="geometry">
            <Array as="points">
              <mxPoint x="611.25" y="625" />
              <mxPoint x="621.25" y="625" />
            </Array>
          </mxGeometry>
        </mxCell>
        <mxCell id="hk8a2O4gQxyiNjNptd78-35" value="" style="html=1;shape=mxgraph.electrical.electro-mechanical.twoWaySwitch;aspect=fixed;elSwitchState=2;direction=south;flipH=1;fillColor=#dae8fc;strokeColor=#6c8ebf;" parent="1" vertex="1">
          <mxGeometry x="608.25" y="530" width="26" height="75" as="geometry" />
        </mxCell>
        <mxCell id="hk8a2O4gQxyiNjNptd78-36" value="" style="group" parent="1" vertex="1" connectable="0">
          <mxGeometry x="601.25" y="650" width="40" height="90" as="geometry" />
        </mxCell>
        <mxCell id="hk8a2O4gQxyiNjNptd78-37" value="" style="rounded=0;whiteSpace=wrap;html=1;container=0;" parent="hk8a2O4gQxyiNjNptd78-36" vertex="1">
          <mxGeometry x="17.14285714285714" width="5.7142857142857135" height="6.923076923076923" as="geometry" />
        </mxCell>
        <mxCell id="hk8a2O4gQxyiNjNptd78-38" value="" style="verticalLabelPosition=bottom;shadow=0;dashed=0;align=center;fillColor=strokeColor;html=1;verticalAlign=top;strokeWidth=1;shape=mxgraph.electrical.miscellaneous.monocell_battery;direction=north;container=0;" parent="hk8a2O4gQxyiNjNptd78-36" vertex="1">
          <mxGeometry x="2.8571428571428568" y="6.923076923076923" width="34.28571428571428" height="83.07692307692308" as="geometry" />
        </mxCell>
        <mxCell id="hk8a2O4gQxyiNjNptd78-39" value="" style="rounded=0;whiteSpace=wrap;html=1;gradientColor=default;fillColor=none;container=0;" parent="hk8a2O4gQxyiNjNptd78-36" vertex="1">
          <mxGeometry y="6.923076923076923" width="40" height="83.07692307692308" as="geometry" />
        </mxCell>
        <mxCell id="hk8a2O4gQxyiNjNptd78-119" style="edgeStyle=orthogonalEdgeStyle;rounded=0;orthogonalLoop=1;jettySize=auto;html=1;exitX=1;exitY=0.5;exitDx=0;exitDy=0;entryX=0;entryY=0.5;entryDx=0;entryDy=0;fillColor=#e1d5e7;strokeColor=#9673a6;" parent="1" source="hk8a2O4gQxyiNjNptd78-40" target="hk8a2O4gQxyiNjNptd78-1" edge="1">
          <mxGeometry relative="1" as="geometry" />
        </mxCell>
        <mxCell id="hk8a2O4gQxyiNjNptd78-40" value="INA226" style="rounded=0;whiteSpace=wrap;html=1;fillColor=#e1d5e7;strokeColor=#9673a6;" parent="1" vertex="1">
          <mxGeometry x="376.25" y="100" width="70" height="40" as="geometry" />
        </mxCell>
        <mxCell id="hk8a2O4gQxyiNjNptd78-47" style="edgeStyle=orthogonalEdgeStyle;rounded=0;orthogonalLoop=1;jettySize=auto;html=1;exitX=0;exitY=0.5;exitDx=0;exitDy=0;entryX=0;entryY=0.5;entryDx=0;entryDy=0;startArrow=classic;startFill=1;endArrow=none;endFill=0;fillColor=#f8cecc;strokeColor=#b85450;" parent="1" source="hk8a2O4gQxyiNjNptd78-46" target="hk8a2O4gQxyiNjNptd78-2" edge="1">
          <mxGeometry relative="1" as="geometry" />
        </mxCell>
        <mxCell id="hk8a2O4gQxyiNjNptd78-46" value="ADC CH0" style="shape=hexagon;perimeter=hexagonPerimeter2;whiteSpace=wrap;html=1;fixedSize=1;fontSize=8;fillColor=#f8cecc;strokeColor=#b85450;" parent="1" vertex="1">
          <mxGeometry x="851.25" y="105" width="70" height="30" as="geometry" />
        </mxCell>
        <mxCell id="hk8a2O4gQxyiNjNptd78-50" style="edgeStyle=orthogonalEdgeStyle;rounded=0;orthogonalLoop=1;jettySize=auto;html=1;exitX=1;exitY=0.5;exitDx=0;exitDy=0;fillColor=#fff2cc;strokeColor=#d6b656;entryX=0;entryY=0.5;entryDx=0;entryDy=0;" parent="1" source="hk8a2O4gQxyiNjNptd78-49" target="hk8a2O4gQxyiNjNptd78-40" edge="1">
          <mxGeometry relative="1" as="geometry">
            <mxPoint x="361.25" y="120" as="targetPoint" />
          </mxGeometry>
        </mxCell>
        <mxCell id="hk8a2O4gQxyiNjNptd78-49" value="DC-DC OUT" style="shape=hexagon;perimeter=hexagonPerimeter2;whiteSpace=wrap;html=1;fixedSize=1;fontSize=8;fillColor=#fff2cc;strokeColor=#d6b656;" parent="1" vertex="1">
          <mxGeometry x="217.25" y="105" width="70" height="30" as="geometry" />
        </mxCell>
        <mxCell id="hk8a2O4gQxyiNjNptd78-51" value="" style="shape=mxgraph.sysml.x;fillColor=#dae8fc;strokeColor=#6c8ebf;" parent="1" vertex="1">
          <mxGeometry x="561.25" y="105" width="10" height="10" as="geometry" />
        </mxCell>
        <mxCell id="hk8a2O4gQxyiNjNptd78-52" value="" style="shape=mxgraph.sysml.x;fillColor=#dae8fc;strokeColor=#6c8ebf;" parent="1" vertex="1">
          <mxGeometry x="676.25" y="105" width="10" height="10" as="geometry" />
        </mxCell>
        <mxCell id="hk8a2O4gQxyiNjNptd78-54" style="edgeStyle=orthogonalEdgeStyle;rounded=0;orthogonalLoop=1;jettySize=auto;html=1;entryX=0;entryY=0.5;entryDx=0;entryDy=0;" parent="1" source="hk8a2O4gQxyiNjNptd78-5" target="hk8a2O4gQxyiNjNptd78-3" edge="1">
          <mxGeometry relative="1" as="geometry" />
        </mxCell>
        <mxCell id="hk8a2O4gQxyiNjNptd78-56" value="&lt;font style=&quot;font-size: 9px;&quot;&gt;GND&lt;/font&gt;&lt;div&gt;MCU&lt;/div&gt;" style="pointerEvents=1;verticalLabelPosition=bottom;shadow=0;dashed=0;align=center;html=1;verticalAlign=top;shape=mxgraph.electrical.signal_sources.signal_ground;" parent="1" vertex="1">
          <mxGeometry x="871.25" y="380" width="30" height="20" as="geometry" />
        </mxCell>
        <mxCell id="hk8a2O4gQxyiNjNptd78-57" style="edgeStyle=orthogonalEdgeStyle;rounded=0;orthogonalLoop=1;jettySize=auto;html=1;exitX=1;exitY=0.12;exitDx=0;exitDy=0;entryX=0.5;entryY=0;entryDx=0;entryDy=0;entryPerimeter=0;" parent="1" source="hk8a2O4gQxyiNjNptd78-3" target="hk8a2O4gQxyiNjNptd78-56" edge="1">
          <mxGeometry relative="1" as="geometry" />
        </mxCell>
        <mxCell id="hk8a2O4gQxyiNjNptd78-67" value="&lt;font style=&quot;font-size: 9px;&quot;&gt;GND&lt;/font&gt;&lt;div&gt;MCU&lt;/div&gt;" style="pointerEvents=1;verticalLabelPosition=bottom;shadow=0;dashed=0;align=center;html=1;verticalAlign=top;shape=mxgraph.electrical.signal_sources.signal_ground;" parent="1" vertex="1">
          <mxGeometry x="871.25" y="645" width="30" height="20" as="geometry" />
        </mxCell>
        <mxCell id="hk8a2O4gQxyiNjNptd78-68" style="edgeStyle=orthogonalEdgeStyle;rounded=0;orthogonalLoop=1;jettySize=auto;html=1;exitX=1;exitY=0.12;exitDx=0;exitDy=0;entryX=0.5;entryY=0;entryDx=0;entryDy=0;entryPerimeter=0;" parent="1" source="hk8a2O4gQxyiNjNptd78-35" target="hk8a2O4gQxyiNjNptd78-67" edge="1">
          <mxGeometry relative="1" as="geometry">
            <Array as="points">
              <mxPoint x="631" y="620" />
              <mxPoint x="886" y="620" />
            </Array>
          </mxGeometry>
        </mxCell>
        <mxCell id="hk8a2O4gQxyiNjNptd78-69" style="edgeStyle=orthogonalEdgeStyle;rounded=0;orthogonalLoop=1;jettySize=auto;html=1;exitX=0.5;exitY=1;exitDx=0;exitDy=0;entryX=0;entryY=0.5;entryDx=0;entryDy=0;" parent="1" source="hk8a2O4gQxyiNjNptd78-25" target="hk8a2O4gQxyiNjNptd78-35" edge="1">
          <mxGeometry relative="1" as="geometry" />
        </mxCell>
        <mxCell id="hk8a2O4gQxyiNjNptd78-89" value="" style="edgeStyle=orthogonalEdgeStyle;rounded=0;orthogonalLoop=1;jettySize=auto;html=1;exitX=0.5;exitY=1;exitDx=0;exitDy=0;entryX=0.5;entryY=0;entryDx=0;entryDy=0;entryPerimeter=0;" parent="1" source="hk8a2O4gQxyiNjNptd78-39" target="rjjdqqys_Oreud0CuxLj-54" edge="1">
          <mxGeometry x="0.4637" y="-12" relative="1" as="geometry">
            <mxPoint x="251.25" y="1105" as="targetPoint" />
            <mxPoint y="-1" as="offset" />
            <mxPoint x="606.25" y="860" as="sourcePoint" />
          </mxGeometry>
        </mxCell>
        <mxCell id="hk8a2O4gQxyiNjNptd78-96" value="ADC CH1" style="shape=hexagon;perimeter=hexagonPerimeter2;whiteSpace=wrap;html=1;fixedSize=1;fontSize=8;fillColor=#f8cecc;strokeColor=#b85450;" parent="1" vertex="1">
          <mxGeometry x="341.25" y="355" width="70" height="30" as="geometry" />
        </mxCell>
        <mxCell id="hk8a2O4gQxyiNjNptd78-102" style="edgeStyle=orthogonalEdgeStyle;rounded=0;orthogonalLoop=1;jettySize=auto;html=1;entryX=1;entryY=0.5;entryDx=0;entryDy=0;endArrow=none;endFill=0;startArrow=classic;startFill=1;fillColor=#f8cecc;strokeColor=#b85450;" parent="1" source="hk8a2O4gQxyiNjNptd78-98" target="hk8a2O4gQxyiNjNptd78-96" edge="1">
          <mxGeometry relative="1" as="geometry" />
        </mxCell>
        <mxCell id="hk8a2O4gQxyiNjNptd78-98" value="" style="html=1;shape=mxgraph.electrical.electro-mechanical.twoWaySwitch;aspect=fixed;elSwitchState=2;direction=west;flipV=1;fillColor=#dae8fc;strokeColor=#6c8ebf;flipH=1;" parent="1" vertex="1">
          <mxGeometry x="448.25" y="357" width="75" height="26" as="geometry" />
        </mxCell>
        <mxCell id="hk8a2O4gQxyiNjNptd78-99" value="" style="shape=mxgraph.sysml.x;fillColor=#dae8fc;strokeColor=#6c8ebf;" parent="1" vertex="1">
          <mxGeometry x="518.25" y="355" width="10" height="10" as="geometry" />
        </mxCell>
        <mxCell id="hk8a2O4gQxyiNjNptd78-103" style="edgeStyle=orthogonalEdgeStyle;rounded=0;orthogonalLoop=1;jettySize=auto;html=1;exitX=0.5;exitY=0;exitDx=0;exitDy=0;endArrow=none;endFill=0;startArrow=classic;startFill=1;" parent="1" source="hk8a2O4gQxyiNjNptd78-23" edge="1">
          <mxGeometry relative="1" as="geometry">
            <mxPoint x="523.25" y="380" as="targetPoint" />
            <Array as="points">
              <mxPoint x="621.25" y="380" />
            </Array>
          </mxGeometry>
        </mxCell>
        <mxCell id="hk8a2O4gQxyiNjNptd78-104" value="ADC CH3" style="shape=hexagon;perimeter=hexagonPerimeter2;whiteSpace=wrap;html=1;fixedSize=1;fontSize=8;fillColor=#f8cecc;strokeColor=#b85450;" parent="1" vertex="1">
          <mxGeometry x="341.25" y="605" width="70" height="30" as="geometry" />
        </mxCell>
        <mxCell id="hk8a2O4gQxyiNjNptd78-105" style="edgeStyle=orthogonalEdgeStyle;rounded=0;orthogonalLoop=1;jettySize=auto;html=1;entryX=1;entryY=0.5;entryDx=0;entryDy=0;endArrow=none;endFill=0;startArrow=classic;startFill=1;fillColor=#f8cecc;strokeColor=#b85450;" parent="1" source="hk8a2O4gQxyiNjNptd78-106" target="hk8a2O4gQxyiNjNptd78-104" edge="1">
          <mxGeometry relative="1" as="geometry" />
        </mxCell>
        <mxCell id="hk8a2O4gQxyiNjNptd78-114" style="edgeStyle=orthogonalEdgeStyle;rounded=0;orthogonalLoop=1;jettySize=auto;html=1;entryX=0.5;entryY=0;entryDx=0;entryDy=0;exitX=1.001;exitY=0.872;exitDx=0;exitDy=0;exitPerimeter=0;" parent="1" source="hk8a2O4gQxyiNjNptd78-106" target="hk8a2O4gQxyiNjNptd78-37" edge="1">
          <mxGeometry relative="1" as="geometry" />
        </mxCell>
        <mxCell id="hk8a2O4gQxyiNjNptd78-106" value="" style="html=1;shape=mxgraph.electrical.electro-mechanical.twoWaySwitch;aspect=fixed;elSwitchState=2;direction=west;flipV=1;fillColor=#dae8fc;strokeColor=#6c8ebf;flipH=1;" parent="1" vertex="1">
          <mxGeometry x="448.25" y="607" width="75" height="26" as="geometry" />
        </mxCell>
        <mxCell id="hk8a2O4gQxyiNjNptd78-107" value="" style="shape=mxgraph.sysml.x;fillColor=#dae8fc;strokeColor=#6c8ebf;" parent="1" vertex="1">
          <mxGeometry x="518.25" y="605" width="10" height="10" as="geometry" />
        </mxCell>
        <mxCell id="rjjdqqys_Oreud0CuxLj-14" style="edgeStyle=orthogonalEdgeStyle;rounded=0;orthogonalLoop=1;jettySize=auto;html=1;exitX=1;exitY=0.12;exitDx=0;exitDy=0;endArrow=none;endFill=0;startArrow=classic;startFill=1;" parent="1" source="rjjdqqys_Oreud0CuxLj-1" edge="1">
          <mxGeometry relative="1" as="geometry">
            <mxPoint x="657.25" y="130" as="targetPoint" />
          </mxGeometry>
        </mxCell>
        <mxCell id="rjjdqqys_Oreud0CuxLj-28" style="edgeStyle=orthogonalEdgeStyle;rounded=0;orthogonalLoop=1;jettySize=auto;html=1;entryX=0;entryY=0.5;entryDx=0;entryDy=0;" parent="1" source="rjjdqqys_Oreud0CuxLj-1" target="rjjdqqys_Oreud0CuxLj-29" edge="1">
          <mxGeometry relative="1" as="geometry">
            <mxPoint x="897.25" y="220" as="targetPoint" />
            <Array as="points">
              <mxPoint x="930" y="180" />
              <mxPoint x="930" y="227" />
            </Array>
          </mxGeometry>
        </mxCell>
        <mxCell id="rjjdqqys_Oreud0CuxLj-1" value="" style="html=1;shape=mxgraph.electrical.electro-mechanical.twoWaySwitch;aspect=fixed;elSwitchState=2;direction=west;flipV=1;fillColor=#ffe6cc;strokeColor=#d79b00;" parent="1" vertex="1">
          <mxGeometry x="681.25" y="167" width="75" height="26" as="geometry" />
        </mxCell>
        <mxCell id="rjjdqqys_Oreud0CuxLj-4" value="" style="shape=mxgraph.sysml.x;fillColor=#ffe6cc;strokeColor=#d79b00;" parent="1" vertex="1">
          <mxGeometry x="676.25" y="165" width="10" height="10" as="geometry" />
        </mxCell>
        <mxCell id="rjjdqqys_Oreud0CuxLj-15" style="edgeStyle=orthogonalEdgeStyle;rounded=0;orthogonalLoop=1;jettySize=auto;html=1;exitX=1;exitY=0.12;exitDx=0;exitDy=0;entryX=0.5;entryY=0;entryDx=0;entryDy=0;endArrow=none;endFill=0;startArrow=classic;startFill=1;" parent="1" source="rjjdqqys_Oreud0CuxLj-6" target="hk8a2O4gQxyiNjNptd78-23" edge="1">
          <mxGeometry relative="1" as="geometry">
            <mxPoint x="657.25" y="380" as="targetPoint" />
          </mxGeometry>
        </mxCell>
        <mxCell id="rjjdqqys_Oreud0CuxLj-41" style="edgeStyle=orthogonalEdgeStyle;rounded=0;orthogonalLoop=1;jettySize=auto;html=1;exitX=0;exitY=0.5;exitDx=0;exitDy=0;entryX=0;entryY=0.5;entryDx=0;entryDy=0;" parent="1" source="rjjdqqys_Oreud0CuxLj-6" target="rjjdqqys_Oreud0CuxLj-29" edge="1">
          <mxGeometry relative="1" as="geometry">
            <mxPoint x="820" y="510" as="targetPoint" />
            <Array as="points">
              <mxPoint x="756" y="500" />
              <mxPoint x="930" y="500" />
              <mxPoint x="930" y="227" />
            </Array>
          </mxGeometry>
        </mxCell>
        <mxCell id="rjjdqqys_Oreud0CuxLj-6" value="" style="html=1;shape=mxgraph.electrical.electro-mechanical.twoWaySwitch;aspect=fixed;elSwitchState=2;direction=west;flipV=1;fillColor=#ffe6cc;strokeColor=#d79b00;" parent="1" vertex="1">
          <mxGeometry x="681.25" y="417" width="75" height="26" as="geometry" />
        </mxCell>
        <mxCell id="rjjdqqys_Oreud0CuxLj-7" value="" style="shape=mxgraph.sysml.x;fillColor=#ffe6cc;strokeColor=#d79b00;" parent="1" vertex="1">
          <mxGeometry x="676.25" y="415" width="10" height="10" as="geometry" />
        </mxCell>
        <mxCell id="rjjdqqys_Oreud0CuxLj-16" style="edgeStyle=orthogonalEdgeStyle;rounded=0;orthogonalLoop=1;jettySize=auto;html=1;exitX=1;exitY=0.12;exitDx=0;exitDy=0;entryX=0.5;entryY=0;entryDx=0;entryDy=0;endArrow=none;endFill=0;startArrow=classic;startFill=1;" parent="1" source="rjjdqqys_Oreud0CuxLj-8" target="hk8a2O4gQxyiNjNptd78-37" edge="1">
          <mxGeometry relative="1" as="geometry">
            <Array as="points">
              <mxPoint x="660" y="690" />
              <mxPoint x="660" y="630" />
              <mxPoint x="621" y="630" />
            </Array>
          </mxGeometry>
        </mxCell>
        <mxCell id="rjjdqqys_Oreud0CuxLj-42" style="edgeStyle=orthogonalEdgeStyle;rounded=0;orthogonalLoop=1;jettySize=auto;html=1;exitX=0;exitY=0.5;exitDx=0;exitDy=0;entryX=0;entryY=0.5;entryDx=0;entryDy=0;" parent="1" source="rjjdqqys_Oreud0CuxLj-8" target="rjjdqqys_Oreud0CuxLj-29" edge="1">
          <mxGeometry relative="1" as="geometry">
            <mxPoint x="950" y="260" as="targetPoint" />
            <Array as="points">
              <mxPoint x="756" y="740" />
              <mxPoint x="930" y="740" />
              <mxPoint x="930" y="227" />
            </Array>
          </mxGeometry>
        </mxCell>
        <mxCell id="rjjdqqys_Oreud0CuxLj-8" value="" style="html=1;shape=mxgraph.electrical.electro-mechanical.twoWaySwitch;aspect=fixed;elSwitchState=2;direction=west;flipV=1;fillColor=#ffe6cc;strokeColor=#d79b00;" parent="1" vertex="1">
          <mxGeometry x="681.25" y="667" width="75" height="26" as="geometry" />
        </mxCell>
        <mxCell id="rjjdqqys_Oreud0CuxLj-9" value="" style="shape=mxgraph.sysml.x;fillColor=#ffe6cc;strokeColor=#d79b00;" parent="1" vertex="1">
          <mxGeometry x="676.25" y="665" width="10" height="10" as="geometry" />
        </mxCell>
        <mxCell id="rjjdqqys_Oreud0CuxLj-18" value="2.7&lt;div&gt;5W&lt;/div&gt;" style="pointerEvents=1;verticalLabelPosition=bottom;shadow=0;dashed=0;align=center;html=1;verticalAlign=top;shape=mxgraph.electrical.resistors.resistor_2;" parent="1" vertex="1">
          <mxGeometry x="1317.25" y="230" width="100" height="20" as="geometry" />
        </mxCell>
        <mxCell id="rjjdqqys_Oreud0CuxLj-20" value="2.7&lt;div&gt;5W&lt;/div&gt;" style="pointerEvents=1;verticalLabelPosition=bottom;shadow=0;dashed=0;align=center;html=1;verticalAlign=top;shape=mxgraph.electrical.resistors.resistor_2;" parent="1" vertex="1">
          <mxGeometry x="1317.25" y="350" width="100" height="20" as="geometry" />
        </mxCell>
        <mxCell id="rjjdqqys_Oreud0CuxLj-21" value="2.7&lt;div&gt;5W&lt;/div&gt;" style="pointerEvents=1;verticalLabelPosition=bottom;shadow=0;dashed=0;align=center;html=1;verticalAlign=top;shape=mxgraph.electrical.resistors.resistor_2;" parent="1" vertex="1">
          <mxGeometry x="1317.25" y="470" width="100" height="20" as="geometry" />
        </mxCell>
        <mxCell id="rjjdqqys_Oreud0CuxLj-22" style="edgeStyle=orthogonalEdgeStyle;rounded=0;orthogonalLoop=1;jettySize=auto;html=1;exitX=1;exitY=0.5;exitDx=0;exitDy=0;exitPerimeter=0;entryX=0;entryY=0.5;entryDx=0;entryDy=0;entryPerimeter=0;endArrow=none;endFill=0;" parent="1" source="rjjdqqys_Oreud0CuxLj-18" target="rjjdqqys_Oreud0CuxLj-20" edge="1">
          <mxGeometry relative="1" as="geometry" />
        </mxCell>
        <mxCell id="rjjdqqys_Oreud0CuxLj-23" style="edgeStyle=orthogonalEdgeStyle;rounded=0;orthogonalLoop=1;jettySize=auto;html=1;exitX=1;exitY=0.5;exitDx=0;exitDy=0;exitPerimeter=0;entryX=0;entryY=0.5;entryDx=0;entryDy=0;entryPerimeter=0;endArrow=none;endFill=0;" parent="1" source="rjjdqqys_Oreud0CuxLj-20" target="rjjdqqys_Oreud0CuxLj-21" edge="1">
          <mxGeometry relative="1" as="geometry" />
        </mxCell>
        <mxCell id="rjjdqqys_Oreud0CuxLj-24" value="&lt;font style=&quot;font-size: 9px;&quot;&gt;GND&lt;/font&gt;&lt;div&gt;MCU&lt;/div&gt;" style="pointerEvents=1;verticalLabelPosition=bottom;shadow=0;dashed=0;align=center;html=1;verticalAlign=top;shape=mxgraph.electrical.signal_sources.signal_ground;" parent="1" vertex="1">
          <mxGeometry x="1437.25" y="550" width="30" height="20" as="geometry" />
        </mxCell>
        <mxCell id="rjjdqqys_Oreud0CuxLj-25" style="edgeStyle=orthogonalEdgeStyle;rounded=0;orthogonalLoop=1;jettySize=auto;html=1;exitX=1;exitY=0.5;exitDx=0;exitDy=0;exitPerimeter=0;entryX=0.5;entryY=0;entryDx=0;entryDy=0;entryPerimeter=0;endArrow=none;endFill=0;" parent="1" source="rjjdqqys_Oreud0CuxLj-21" target="rjjdqqys_Oreud0CuxLj-24" edge="1">
          <mxGeometry relative="1" as="geometry" />
        </mxCell>
        <mxCell id="rjjdqqys_Oreud0CuxLj-38" style="edgeStyle=orthogonalEdgeStyle;rounded=0;orthogonalLoop=1;jettySize=auto;html=1;exitX=1;exitY=0.88;exitDx=0;exitDy=0;entryX=0;entryY=0.5;entryDx=0;entryDy=0;" parent="1" source="rjjdqqys_Oreud0CuxLj-29" target="rjjdqqys_Oreud0CuxLj-32" edge="1">
          <mxGeometry relative="1" as="geometry" />
        </mxCell>
        <mxCell id="rjjdqqys_Oreud0CuxLj-29" value="" style="html=1;shape=mxgraph.electrical.electro-mechanical.twoWaySwitch;aspect=fixed;elSwitchState=2;fillColor=#ffe6cc;strokeColor=#d79b00;" parent="1" vertex="1">
          <mxGeometry x="967.25" y="214" width="75" height="26" as="geometry" />
        </mxCell>
        <mxCell id="rjjdqqys_Oreud0CuxLj-30" style="edgeStyle=orthogonalEdgeStyle;rounded=0;orthogonalLoop=1;jettySize=auto;html=1;exitX=1;exitY=0.12;exitDx=0;exitDy=0;entryX=0;entryY=0.5;entryDx=0;entryDy=0;entryPerimeter=0;" parent="1" source="rjjdqqys_Oreud0CuxLj-29" target="rjjdqqys_Oreud0CuxLj-18" edge="1">
          <mxGeometry relative="1" as="geometry" />
        </mxCell>
        <mxCell id="rjjdqqys_Oreud0CuxLj-32" value="" style="html=1;shape=mxgraph.electrical.electro-mechanical.twoWaySwitch;aspect=fixed;elSwitchState=2;fillColor=#ffe6cc;strokeColor=#d79b00;" parent="1" vertex="1">
          <mxGeometry x="1087.25" y="357" width="75" height="26" as="geometry" />
        </mxCell>
        <mxCell id="rjjdqqys_Oreud0CuxLj-39" style="edgeStyle=orthogonalEdgeStyle;rounded=0;orthogonalLoop=1;jettySize=auto;html=1;exitX=1;exitY=0.12;exitDx=0;exitDy=0;entryX=0;entryY=0.5;entryDx=0;entryDy=0;entryPerimeter=0;" parent="1" source="rjjdqqys_Oreud0CuxLj-32" target="rjjdqqys_Oreud0CuxLj-20" edge="1">
          <mxGeometry relative="1" as="geometry" />
        </mxCell>
        <mxCell id="rjjdqqys_Oreud0CuxLj-40" style="edgeStyle=orthogonalEdgeStyle;rounded=0;orthogonalLoop=1;jettySize=auto;html=1;exitX=1;exitY=0.88;exitDx=0;exitDy=0;entryX=0;entryY=0.5;entryDx=0;entryDy=0;entryPerimeter=0;" parent="1" source="rjjdqqys_Oreud0CuxLj-32" target="rjjdqqys_Oreud0CuxLj-21" edge="1">
          <mxGeometry relative="1" as="geometry" />
        </mxCell>
        <mxCell id="rjjdqqys_Oreud0CuxLj-47" value="K1" style="text;html=1;align=center;verticalAlign=middle;whiteSpace=wrap;rounded=0;" parent="1" vertex="1">
          <mxGeometry x="501.25" y="85" width="60" height="30" as="geometry" />
        </mxCell>
        <mxCell id="rjjdqqys_Oreud0CuxLj-48" value="K2" style="text;html=1;align=center;verticalAlign=middle;whiteSpace=wrap;rounded=0;" parent="1" vertex="1">
          <mxGeometry x="561.25" y="300" width="60" height="30" as="geometry" />
        </mxCell>
        <mxCell id="rjjdqqys_Oreud0CuxLj-49" value="K3" style="text;html=1;align=center;verticalAlign=middle;whiteSpace=wrap;rounded=0;" parent="1" vertex="1">
          <mxGeometry x="566.25" y="569" width="60" height="30" as="geometry" />
        </mxCell>
        <mxCell id="rjjdqqys_Oreud0CuxLj-51" value="K4" style="text;html=1;align=center;verticalAlign=middle;whiteSpace=wrap;rounded=0;" parent="1" vertex="1">
          <mxGeometry x="688.75" y="75" width="60" height="30" as="geometry" />
        </mxCell>
        <mxCell id="rjjdqqys_Oreud0CuxLj-54" value="&lt;font style=&quot;font-size: 9px;&quot;&gt;GND&lt;/font&gt;&lt;div&gt;MCU&lt;/div&gt;" style="pointerEvents=1;verticalLabelPosition=bottom;shadow=0;dashed=0;align=center;html=1;verticalAlign=top;shape=mxgraph.electrical.signal_sources.signal_ground;" parent="1" vertex="1">
          <mxGeometry x="606.25" y="820" width="30" height="20" as="geometry" />
        </mxCell>
        <mxCell id="rjjdqqys_Oreud0CuxLj-55" style="edgeStyle=orthogonalEdgeStyle;rounded=0;orthogonalLoop=1;jettySize=auto;html=1;exitX=1;exitY=0;exitDx=0;exitDy=0;entryX=0.598;entryY=0.502;entryDx=0;entryDy=0;entryPerimeter=0;" parent="1" edge="1">
          <mxGeometry relative="1" as="geometry">
            <mxPoint x="621.25" y="830" as="sourcePoint" />
            <mxPoint x="621.3020000000001" y="829.8499999999999" as="targetPoint" />
          </mxGeometry>
        </mxCell>
        <mxCell id="rjjdqqys_Oreud0CuxLj-56" value="K5" style="text;html=1;align=center;verticalAlign=middle;whiteSpace=wrap;rounded=0;" parent="1" vertex="1">
          <mxGeometry x="458.25" y="335" width="60" height="30" as="geometry" />
        </mxCell>
        <mxCell id="rjjdqqys_Oreud0CuxLj-57" value="K6" style="text;html=1;align=center;verticalAlign=middle;whiteSpace=wrap;rounded=0;" parent="1" vertex="1">
          <mxGeometry x="455.75" y="585" width="60" height="30" as="geometry" />
        </mxCell>
        <mxCell id="WDdKjJFwYe0GrifWj0j4-1" value="K7" style="text;html=1;align=center;verticalAlign=middle;whiteSpace=wrap;rounded=0;" parent="1" vertex="1">
          <mxGeometry x="688.75" y="184" width="60" height="30" as="geometry" />
        </mxCell>
        <mxCell id="WDdKjJFwYe0GrifWj0j4-2" value="K8" style="text;html=1;align=center;verticalAlign=middle;whiteSpace=wrap;rounded=0;" parent="1" vertex="1">
          <mxGeometry x="681.25" y="440" width="60" height="30" as="geometry" />
        </mxCell>
        <mxCell id="WDdKjJFwYe0GrifWj0j4-3" value="K9" style="text;html=1;align=center;verticalAlign=middle;whiteSpace=wrap;rounded=0;" parent="1" vertex="1">
          <mxGeometry x="676.25" y="693" width="60" height="30" as="geometry" />
        </mxCell>
        <mxCell id="WDdKjJFwYe0GrifWj0j4-4" value="K10" style="text;html=1;align=center;verticalAlign=middle;whiteSpace=wrap;rounded=0;" parent="1" vertex="1">
          <mxGeometry x="982.25" y="184" width="60" height="30" as="geometry" />
        </mxCell>
        <mxCell id="WDdKjJFwYe0GrifWj0j4-5" value="K11" style="text;html=1;align=center;verticalAlign=middle;whiteSpace=wrap;rounded=0;" parent="1" vertex="1">
          <mxGeometry x="1082.25" y="335" width="60" height="30" as="geometry" />
        </mxCell>
        <mxCell id="WDdKjJFwYe0GrifWj0j4-6" value="" style="rounded=0;whiteSpace=wrap;html=1;fillColor=none;strokeColor=#b85450;" parent="1" vertex="1">
          <mxGeometry x="952.25" y="165" width="237.75" height="355" as="geometry" />
        </mxCell>
        <mxCell id="WDdKjJFwYe0GrifWj0j4-7" value="No implement yet." style="text;html=1;align=center;verticalAlign=middle;whiteSpace=wrap;rounded=0;fillColor=none;strokeColor=#b85450;" parent="1" vertex="1">
          <mxGeometry x="990" y="460" width="130" height="50" as="geometry" />
        </mxCell>
      </root>
    </mxGraphModel>
  </diagram>
</mxfile>
